<svg width="236" height="98" viewBox="0 0 236 98" fill="none" xmlns="http://www.w3.org/2000/svg">
<path d="M164.117 88.2302C161.027 88.2302 70.766 86.6823 67.8971 88.2302C65.5527 89.4951 59.5243 60.3428 57.3982 49.6397C56.8862 47.0625 56.642 44.451 56.642 41.8235V4.63017C56.642 2.073 58.7148 0 61.2717 0C62.4116 0 63.5 0.41039 64.352 1.16784C70.5363 6.66603 96.5762 29.6415 98.1313 28.0833C99.8968 26.3143 133.662 26.0932 135.648 28.0833C137.399 29.838 162.139 6.66723 167.969 1.15995C168.763 0.409236 169.802 0 170.896 0C173.246 0 175.151 1.90555 175.151 4.25616V41.8877C175.151 44.4727 174.915 47.0459 174.419 49.5829C172.382 60.0073 166.636 88.2302 164.117 88.2302Z" fill="black"/>
<path d="M118.378 70.6881C118.604 70.2763 110.703 70.4822 110.929 70.6881C111.155 70.894 114.541 75.4233 114.992 75.4233C115.444 75.4234 118.152 71.0998 118.378 70.6881Z" fill="#F9F9F9"/>
<path d="M70.7781 49.3112C69.6919 49.0865 65.5645 24.8138 67.5196 26.1622C69.4747 27.5107 78.3813 37.6243 78.5985 38.9728C78.8158 40.3213 71.8643 49.5359 70.7781 49.3112Z" fill="#F9F9F9"/>
<path d="M163.916 45.9957C165.002 45.763 169.129 20.6234 167.174 22.02C165.219 23.4167 156.313 33.8915 156.095 35.2882C155.878 36.6848 162.83 46.2285 163.916 45.9957Z" fill="#F9F9F9"/>
<path d="M92.1062 70.3973C92.1721 70.4542 92.2083 70.4672 92.2083 70.4273V64.9679C92.2083 63.8562 92.7385 62.8127 93.6355 62.1561C94.6587 61.4072 96.0074 61.2721 97.154 61.8133C99.2112 62.7843 102.276 64.2581 102.566 64.5557C105.1 67.1524 100.432 57.4426 97.2659 55.6717C95.4709 54.6679 93.187 54.1829 90.6657 55.5226C89.5426 56.1193 88.7336 56.8125 88.1601 57.5446C85.1275 61.4154 88.3836 67.1845 92.1062 70.3973Z" fill="#F9F9F9"/>
<path d="M139.741 70.3398C139.645 70.4428 139.59 70.4783 139.59 70.4273V64.7623C139.59 63.7753 139.14 62.8429 138.367 62.2289C137.38 61.4445 136.029 61.3034 134.907 61.8789C133.016 62.8494 130.312 64.2648 130.05 64.5557C127.638 67.2394 131.972 57.3704 135.1 55.5723C136.727 54.6373 138.767 54.2279 141.011 55.5226C142.139 56.1732 142.923 56.9387 143.457 57.7441C146.066 61.6792 142.969 66.8942 139.741 70.3398Z" fill="#F9F9F9"/>
<path d="M212.419 62.9974C194.438 62.6711 190.624 74.6464 189.846 80.7406C189.557 83.0001 190.312 85.209 191.541 87.127L193.835 90.7076C194.984 92.5 196.998 93.5468 199.125 93.4562C200.233 93.4089 201.333 93.671 202.301 94.2132L208.569 97.7233C209.501 98.2455 210.675 98.0107 211.335 97.1699C211.967 96.3644 213.076 96.1107 213.996 96.5612L215.688 97.3907C216.466 97.7719 217.338 97.9203 218.198 97.8181L222.14 97.3498C223.479 97.1908 224.689 96.4775 225.477 95.3836C226.382 94.128 227.854 93.3839 229.401 93.3839C231.501 93.3839 233.395 92.0471 234.071 90.0592L235.509 85.8309C235.876 84.7516 236.084 83.6292 235.968 82.4951C235.459 77.5191 232.267 63.3577 212.419 62.9974Z" fill="black"/>
<path d="M22.4353 62.9974C4.57852 62.6704 0.819439 74.6948 0.0589342 80.7774C-0.220596 83.0131 0.52037 85.2 1.72808 87.1021L4.03081 90.7286C5.15985 92.5068 7.15225 93.5468 9.25645 93.4563C10.3568 93.409 11.4483 93.6711 12.4072 94.213L18.6135 97.7201C19.5391 98.2431 20.7081 98.0089 21.3609 97.1698C21.9863 96.3658 23.0908 96.1127 24.0038 96.5641L25.6751 97.3905C26.446 97.7717 27.3112 97.9202 28.1651 97.8178L32.0587 97.3511C33.3919 97.1913 34.5962 96.4774 35.3763 95.3845C36.2725 94.1291 37.734 93.3839 39.2763 93.3839C41.3539 93.3839 43.22 92.058 43.8837 90.089L45.3241 85.8158C45.6845 84.7464 45.8885 83.6356 45.7757 82.5127C45.2772 77.5528 42.1295 63.3581 22.4353 62.9974Z" fill="black"/>
</svg>
