<svg width="592" height="638" viewBox="0 0 592 638" fill="none" xmlns="http://www.w3.org/2000/svg">
<path d="M184.842 48.0781C187.466 30.8802 203.535 19.0658 220.733 21.69L550.23 71.9665C567.428 74.5907 579.242 90.6597 576.618 107.858L542.528 331.272C539.904 348.47 523.835 360.284 506.637 357.66L177.14 307.383C159.942 304.759 148.128 288.69 150.752 271.492L184.842 48.0781Z" fill="#C5AB79" stroke="#947E57" stroke-width="17"/>
<path d="M223.188 95.8245C225.812 78.6265 241.881 66.8122 259.079 69.4363L500.568 106.284C517.766 108.908 529.58 124.977 526.956 142.175L505.204 284.728C502.58 301.926 486.511 313.741 469.313 311.116L227.824 274.269C210.627 271.644 198.812 255.576 201.436 238.378L223.188 95.8245Z" fill="#C5AB79" stroke="#947E57" stroke-width="17"/>
<path d="M363.816 2.25356C361.366 3.90404 337.316 31.2534 338.316 31.2536C339.316 31.2537 437.316 46.2537 438.316 46.7537C439.316 47.2537 428.334 16.1221 424.816 11.7536C421.297 7.38502 366.266 0.60307 363.816 2.25356Z" fill="#947E57" stroke="#947E57" stroke-width="3"/>
<path d="M57.5 570.5C42.5 559.5 33 529.5 33 529.5L512 422C512 422 510.077 445.352 507 460C504.204 473.308 498 493 497.5 493.5C497 494 414.5 604.5 410.5 608.5C406.5 612.5 400 616 389.5 622C379 628 365 628 357 627.5C349 627 79 584.5 76.5 583.5C74 582.5 72.5 581.5 57.5 570.5Z" fill="#C5AB79" stroke="#947E57" stroke-width="19"/>
<path d="M119.316 339.754L13.3158 476.754C13.3158 476.754 5.85528 500.838 13.3158 512.754C17.9601 520.172 30.8158 526.754 30.8158 526.754L328.316 574.754C328.316 574.754 363.087 577.234 383.316 569.754C397.858 564.376 417.316 549.254 417.316 549.254L515.816 416.254C515.816 416.254 524.028 400.579 522.316 390.254C520.437 378.923 505.316 366.254 505.316 366.254L176.316 315.754C176.316 315.754 155.787 318.888 143.816 324.254C133.484 328.884 119.316 339.754 119.316 339.754Z" fill="#C5AB79" stroke="#947E57" stroke-width="19"/>
<path d="M42.9621 496.045C38.314 502.516 30.1506 515.173 37.6552 515.598C45.1598 516.024 220.963 545.786 220.963 545.786L333.938 492.165L351.378 384.987C351.378 384.987 345.216 379.302 340.304 377.597C331.769 374.633 317.33 380.324 317.33 380.324C317.33 380.324 303.684 368.954 293.213 368.562C284.203 368.225 271.283 375.78 271.283 375.78C271.283 375.78 261.251 364.984 252.655 362.963C244.026 360.935 230.186 366.186 230.186 366.186C230.186 366.186 215.952 354.702 205.064 353.934C192.043 353.015 174.189 366.74 174.189 366.74C174.189 366.74 159.026 360.718 150.16 363.978C140.141 367.662 132.869 385.15 132.869 385.15C132.869 385.15 120.089 387.842 114.449 393.332C108.056 399.556 105.657 414.42 105.657 414.42C105.657 414.42 95.9646 416.309 91.2126 420.064C82.9619 426.582 81.4604 445.161 81.4604 445.161C81.4604 445.161 69.8226 450.21 65.0701 456.324C58.2074 465.154 59.3475 484.382 59.3475 484.382C59.3475 484.382 47.5441 489.665 42.9621 496.045Z" fill="white" stroke="#D9D1C9" stroke-width="3"/>
<path d="M305.088 441.544C296.272 449.165 286.63 470.892 290.973 468.35C295.315 465.807 308.728 462.5 321.896 469.244C332.939 474.9 364.164 483.807 364.164 483.807C364.164 483.807 392.314 479.982 408.417 485.087C421.027 489.085 438.314 503.028 438.314 503.028L506.608 411.088C506.608 411.088 497.207 402.993 489.824 400.997C481.14 398.65 466.836 402.467 466.836 402.467C466.836 402.467 459.993 396.926 454.774 395.181C444.153 391.631 426.377 399.162 426.377 399.162C426.377 399.162 411.551 378.298 397.168 375.905C384.946 373.872 368.176 382.004 366.515 384.09C364.854 386.176 353.385 384.59 346.634 388.851C339.446 393.387 336.749 398.294 333.329 406.075C329.45 414.898 330.077 426.258 329.953 430.524C329.83 434.789 313.124 434.598 305.088 441.544Z" fill="#AE7528" stroke="#976628" stroke-width="3"/>
<path d="M353.255 497.5C325.552 520.378 308.638 559.045 312.755 561L331.5 565L353.255 566C353.255 566 365.92 566.07 374.5 564.5C385.964 562.403 401 552.5 401 552.5C401 552.5 434.5 506 436 505.5C437.5 505 430.482 499.704 426.5 496.5C413.547 486.077 385 484 385 484C385 484 370.59 482.686 363.5 486.5C358.633 489.118 358.103 493.496 353.255 497.5Z" fill="#FDCA3A" stroke="#F8B003" stroke-width="3"/>
<path d="M307.208 562.217C306.405 561.829 224.102 547.027 222.957 547.436C221.812 547.845 221.557 541.618 222.957 538.396C224.877 533.975 233.186 531.867 233.186 531.867C233.186 531.867 230.861 523.309 233.186 518.808C234.962 515.373 240.493 512.279 240.493 512.279C240.493 512.279 239.14 505.095 241.468 501.23C243.861 497.255 251.697 494.199 251.697 494.199C251.697 494.199 255.107 486.163 256.082 483.652C257.056 481.141 268.26 480.638 268.26 480.638C268.26 480.638 272.226 472.655 277.028 470.091C282.603 467.115 293.104 470.091 293.104 470.091C293.104 470.091 302.406 462.24 309.179 463.06C313.826 463.623 319.896 468.585 319.896 468.585C319.896 468.585 327.044 464.985 331.587 466.073C336.834 467.331 341.817 475.616 341.817 475.616C341.817 475.616 346.343 474.954 349.124 475.616C353.034 476.546 366.151 480.854 365.176 482.361C364.202 483.868 344.587 499.851 334 513.5C320.751 530.58 308.011 562.606 307.208 562.217Z" fill="#4E6530" stroke="#5F7C32" stroke-width="3"/>
<path d="M332.5 553.5C332.5 553.5 369.5 501.5 370.5 500.5C371.5 499.5 385.433 494.26 394.5 497C403.116 499.604 414 508.5 412 512C410 515.5 381.5 557 380 557C378.5 557 368.573 561.64 360.5 560C354.419 558.765 346.5 554.5 346 553.5C345.5 552.5 377 509 377.5 508.5C378 508 386.007 504.011 390.5 506.5C393.958 508.416 396 514 396 515C396 516 372.5 546 372.5 546" stroke="#F8B003" stroke-width="5" stroke-linecap="round"/>
<path d="M335.5 429C335.5 429 364.701 418.941 375.5 424C385.032 428.466 393 444.5 393 444.5M393 444.5L369 475.5M393 444.5C393 444.5 407.323 444.5 416.5 444.5M416.5 444.5C427.672 439.321 434.724 437.471 447 436.5C459.125 435.541 475 444.5 475 444.5M416.5 444.5C413.702 436.356 413.333 430.949 415 422.5C416.64 414.189 423.5 404.5 423.5 404.5" stroke="#926125" stroke-width="10" stroke-linecap="round"/>
<circle cx="289.5" cy="498.5" r="5.5" fill="#5F7C32"/>
<ellipse cx="268.5" cy="505.5" rx="4.5" ry="3.5" fill="#5F7C32"/>
<circle cx="300.5" cy="480.5" r="4.5" fill="#5F7C32"/>
<ellipse cx="260.5" cy="528" rx="3.5" ry="5" fill="#5F7C32"/>
<ellipse cx="283.5" cy="522" rx="3.5" ry="5" fill="#5F7C32"/>
<ellipse cx="275.5" cy="544" rx="3.5" ry="3" fill="#5F7C32"/>
<ellipse cx="314" cy="509" rx="5" ry="4" fill="#5F7C32"/>
<ellipse cx="297.5" cy="539" rx="3.5" ry="3" fill="#5F7C32"/>
<path d="M132 437.004C132 437.004 139.063 432.852 144 433.004C149.589 433.176 157 439.004 157 439.004" stroke="#EFEBE6" stroke-width="10" stroke-linecap="round"/>
<path d="M167 403.004C167 403.004 174.063 398.852 179 399.004C184.589 399.176 192 405.004 192 405.004" stroke="#EFEBE6" stroke-width="10" stroke-linecap="round"/>
<path d="M239 406.004C239 406.004 246.063 401.852 251 402.004C256.589 402.176 264 408.004 264 408.004" stroke="#EFEBE6" stroke-width="10" stroke-linecap="round"/>
<path d="M124.982 506.254C124.982 506.254 132.554 503.125 137.422 503.964C142.933 504.913 149.46 511.716 149.46 511.716" stroke="#EFEBE6" stroke-width="10" stroke-linecap="round"/>
<path d="M180.279 515.965C180.279 515.965 187.85 512.837 192.719 513.675C198.229 514.624 204.756 521.427 204.756 521.427" stroke="#EFEBE6" stroke-width="10" stroke-linecap="round"/>
<path d="M187 446.001C187 446.001 194.063 441.852 199 442.004C204.589 442.176 212 448 212 448" stroke="#EFEBE6" stroke-width="10" stroke-linecap="round"/>
<path d="M149 477.001C149 477.001 156.063 472.852 161 473.004C166.589 473.176 174 479 174 479" stroke="#EFEBE6" stroke-width="10" stroke-linecap="round"/>
<path d="M201.227 489.493C201.227 489.493 205.544 483.345 209.676 481.889C214.353 480.241 222.596 483.266 222.596 483.266" stroke="#EFEBE6" stroke-width="10" stroke-linecap="round"/>
<path d="M247 455.5C247 455.5 251.063 449.852 256 450.004C261.589 450.176 264.5 457 264.5 457" stroke="#EFEBE6" stroke-width="10" stroke-linecap="round"/>
<path d="M109.205 475.642C109.205 475.642 109.862 468.715 114.201 466.355C119.113 463.683 125.07 468.105 125.07 468.105" stroke="#EFEBE6" stroke-width="10" stroke-linecap="round"/>
<path d="M395.547 400.204C395.547 400.204 384.179 401.934 385.047 395.704C385.915 389.474 393.547 385.204 396.547 384.204C399.547 383.204 404.047 386.204 404.047 386.204C404.047 386.204 409.941 388.648 411.047 391.704C411.922 394.119 410.047 398.204 410.047 398.204C410.047 398.204 407.994 402.951 405.047 404.204C401.07 405.896 395.547 400.204 395.547 400.204Z" fill="#B27B37" stroke="#B27B37" stroke-linecap="round"/>
<path d="M428.5 429C428.5 429 424.532 425.866 425.027 423.134C425.522 420.401 429.879 418.528 431.591 418.09C433.303 417.651 435.872 418.967 435.872 418.967C435.872 418.967 439.236 420.039 439.867 421.379C440.366 422.438 436.5 423.134 436.5 423.134C436.5 423.134 436.182 424.95 434.5 425.5C432.23 426.242 428.5 429 428.5 429Z" fill="#B27B37" stroke="#B27B37" stroke-linecap="round"/>
<path d="M333.5 441.5C333.5 441.5 348.933 443.732 344.467 446.616C340 449.5 338.832 458.894 336.173 460.606C333.514 462.318 328.412 460.526 328.412 460.526C328.412 460.526 322.096 459.618 320.267 456.931C318.822 454.808 319.626 450.386 319.626 450.386C319.626 450.386 321.455 448.561 324 446.616C327.434 443.992 333.5 441.5 333.5 441.5Z" fill="#B27B37" stroke="#B27B37" stroke-linecap="round"/>
<path d="M351.513 415.818C351.513 415.818 347.575 413.433 348.038 410.093C348.5 406.753 352.914 406.354 354.513 405.818C356.111 405.282 358.16 405 358.16 405C358.16 405 361.299 406.31 361.889 407.949C362.355 409.243 361.356 411.433 361.356 411.433C361.356 411.433 360.262 413.978 358.692 414.65C356.573 415.557 351.513 415.818 351.513 415.818Z" fill="#B27B37" stroke="#B27B37" stroke-linecap="round"/>
<path d="M449.555 463.755C447.211 462.594 445.618 461.37 446.08 458.03C446.542 454.69 449.944 451.473 451.542 450.937C453.14 450.401 459.177 448.675 460.542 451.937C461.145 453.378 459.953 454.299 460.542 455.937C461.008 457.231 459.398 459.37 459.398 459.37C459.398 459.37 458.305 461.915 456.735 462.587C454.616 463.494 452.1 465.016 449.555 463.755Z" fill="#B27B37" stroke="#B27B37" stroke-linecap="round"/>
<path d="M485.256 420C485.256 420 482.727 418.236 483.024 415.766C483.321 413.296 486.156 413.002 487.183 412.605C488.209 412.209 489.525 412 489.525 412C489.525 412 491.542 412.969 491.92 414.18C492.22 415.138 491.578 416.757 491.578 416.757C491.578 416.757 490.876 418.639 489.867 419.136C488.507 419.807 485.256 420 485.256 420Z" fill="#B27B37" stroke="#B27B37" stroke-linecap="round"/>
</svg>
