<svg width="97" height="181" viewBox="0 0 97 181" fill="none" xmlns="http://www.w3.org/2000/svg">
<path d="M66.2353 175.159H52.9644C51.0496 175.159 49.1664 175.648 47.4925 176.58C45.8187 177.511 43.9355 178 42.0206 178H33.127C26.2409 178 19.7144 174.921 15.3288 169.602C12.8039 166.54 11.1087 162.879 10.4064 158.97L6.96791 139.833C6.62363 137.917 4.95912 136.523 3.01571 136.523C0.797896 136.523 -1 134.722 -1 132.5V67.796C-1 59.0191 5.84892 51.7735 14.597 51.2955C13.3486 47.9574 12.9817 43.7537 13.0295 39.7117C13.1422 30.1901 16.3891 20.6548 23.1016 13.9128C25.6012 11.4023 28.3887 9.27986 31.8085 7.22608C36.93 4.15032 42.9332 3 48.9045 3H52.0295C58.8361 3 65.4546 5.23805 70.8687 9.37053C76.9958 14.0471 81.1714 20.8361 82.5862 28.4214L82.6567 28.7993L87.5866 32.6499C91.6338 35.8109 94 40.6649 94 45.8059C94 50.2303 92.2456 54.4735 89.1227 57.602L87.5079 59.2197C85.6129 61.1181 83.3899 62.6565 80.9469 63.7602L76.8481 65.612C72.5195 67.5676 68.9419 70.8786 66.6535 75.0467C64.8736 78.2887 63.9403 81.9287 63.9403 85.6287V90.2126C63.9403 93.7969 64.4236 97.3647 65.377 100.819L76.1878 139.993C76.8963 142.56 78.2568 144.899 80.1367 146.782C83.0213 149.672 84.6418 153.591 84.6418 157.678V157.867C84.6418 162.364 82.7364 166.65 79.3996 169.658L78.5486 170.426C75.1687 173.473 70.7824 175.159 66.2353 175.159Z" fill="#F9F9F9"/>
<path d="M82.6567 28.7993L87.5866 32.6499C91.6338 35.8109 94 40.6649 94 45.8059C94 50.2303 92.2456 54.4735 89.1227 57.602L87.5079 59.2197C85.6129 61.1181 83.3899 62.6565 80.9469 63.7602L76.8481 65.612C72.5195 67.5676 68.9419 70.8786 66.6535 75.0467C64.8736 78.2887 63.9403 81.9287 63.9403 85.6287V90.2126C63.9403 93.7969 64.4236 97.3647 65.377 100.819L76.1878 139.993C76.8963 142.56 78.2568 144.899 80.1367 146.782C83.0213 149.672 84.6418 153.591 84.6418 157.678V157.867C84.6418 162.364 82.7364 166.65 79.3996 169.658L78.5486 170.426C75.1687 173.473 70.7824 175.159 66.2353 175.159H52.9644C51.0496 175.159 49.1664 175.648 47.4925 176.58C45.8187 177.511 43.9355 178 42.0206 178H33.127C26.2409 178 19.7144 174.921 15.3288 169.602C12.8039 166.54 11.1087 162.879 10.4064 158.97L6.96791 139.833C6.62363 137.917 4.95912 136.523 3.01571 136.523C0.797896 136.523 -1 134.722 -1 132.5V67.796C-1 59.0191 5.84892 51.7735 14.597 51.2955M82.6567 28.7993L77.2687 24.5909M82.6567 28.7993L82.5862 28.4214C81.1714 20.8361 76.9958 14.0471 70.8687 9.37053C65.4546 5.23805 58.8361 3 52.0295 3H48.9045C42.9332 3 36.93 4.15032 31.8085 7.22608C28.3887 9.27986 25.6012 11.4023 23.1016 13.9128C16.3891 20.6548 13.1422 30.1901 13.0295 39.7117C12.9817 43.7537 13.3486 47.9574 14.597 51.2955M14.597 51.2955C14.8161 51.8814 15.0874 52.5074 15.3875 53.1441C17.4231 57.4631 22.0142 59.8182 26.7818 59.8182H28.1167C32.2204 59.8182 36.0232 57.6612 38.1345 54.136C39.2469 52.2788 39.823 50.1488 39.7987 47.983L39.5522 26.0114M65.0746 32.8295H60.4108C55.6668 32.8295 51.0097 34.105 46.9254 36.5227M60.8209 40.2159L58.9816 39.571C57.3023 38.9822 55.6272 40.4618 56 42.2045M40.9702 121.466L45.4889 139.573C46.4317 143.351 48.2989 146.835 50.9219 149.709L52.7331 151.693C54.8575 154.021 56.2002 156.957 56.5723 160.089C57.1074 164.592 55.5923 169.096 52.4464 172.357L49.194 175.727M83.2239 43.625H84.6418C85.4249 43.625 86.0597 42.989 86.0597 42.2045C86.0597 41.42 85.4249 40.7841 84.6418 40.7841H83.2239C82.4408 40.7841 81.806 41.42 81.806 42.2045C81.806 42.989 82.4408 43.625 83.2239 43.625Z" stroke="black" stroke-width="5" stroke-linecap="round"/>
</svg>
