<svg width="568" height="362" viewBox="0 0 568 362" fill="none" xmlns="http://www.w3.org/2000/svg">
<path d="M4.76799 59.429C25.159 121.048 104.212 359 109 359H457.5C463.175 359 542.79 115.076 562.908 53.1565C565.864 44.0597 565.103 34.2066 560.826 25.6515L559.83 23.6609C553.618 11.2365 540.343 3.97672 526.531 5.45006C517.27 6.43785 508.89 11.2034 503.342 18.6836C475.66 56.0058 391.164 169.682 392 165.5C393 160.5 178.5 157 176 165.5C173.921 172.568 90.2613 55.535 62.1244 15.8906C56.3584 7.7665 47.0736 3 37.1113 3C24.4002 3 13.0096 10.8498 8.48447 22.7283L5.4406 30.7184C1.92118 39.9569 1.6621 50.0434 4.76799 59.429Z" fill="#27AB63" stroke="#27AB63" stroke-width="5" stroke-linecap="round"/>
<path d="M380.215 190.722C380.215 244.558 337.045 287.945 284.108 287.945C231.17 287.945 188 244.558 188 190.722C188 136.886 231.17 93.5 284.108 93.5C337.045 93.5 380.215 136.886 380.215 190.722Z" fill="white" stroke="#27AB63" stroke-width="30"/>
<circle cx="232.456" cy="152.353" r="6.68875" fill="black"/>
<circle cx="336.503" cy="152.353" r="6.68875" fill="black"/>
<path d="M232.456 185.797C252.699 192.608 268.507 196.087 284.137 196.199C300.231 196.315 316.137 192.86 336.503 185.797" stroke="black" stroke-width="5" stroke-linecap="round"/>
<path d="M271.845 162.015L272.289 161.354C278.13 152.677 291.014 153.031 296.37 162.015V162.015" stroke="black" stroke-width="5" stroke-linecap="round"/>
</svg>
