<svg width="483" height="308" viewBox="0 0 483 308" fill="none" xmlns="http://www.w3.org/2000/svg">
<path d="M5.04809 50.9091C22.3603 103.225 89.4777 305.25 93.5427 305.25H389.425C394.243 305.25 461.837 98.154 478.918 45.5836C481.427 37.8604 480.782 29.4949 477.15 22.2315L476.305 20.5415C471.031 9.99294 459.76 3.82925 448.033 5.08014C440.171 5.91879 433.055 9.9648 428.345 16.3156C404.843 48.0027 333.104 144.515 333.814 140.965C334.663 136.72 152.549 133.748 150.427 140.965C148.662 146.966 77.6333 47.603 53.7446 13.9443C48.8492 7.04683 40.9663 3 32.5081 3C21.7161 3 12.0453 9.66466 8.20344 19.7496L5.61915 26.5334C2.63111 34.377 2.41114 42.9406 5.04809 50.9091Z" fill="#72C9D3" stroke="#72C9D3" stroke-width="5" stroke-linecap="round"/>
<path d="M321.544 162.379C321.544 206.857 285.885 242.658 242.212 242.658C198.539 242.658 162.88 206.857 162.88 162.379C162.88 117.901 198.539 82.1007 242.212 82.1007C285.885 82.1007 321.544 117.901 321.544 162.379Z" fill="white" stroke="#72C9D3" stroke-width="30"/>
<circle cx="198.359" cy="129.803" r="5.67885" fill="black"/>
<circle cx="286.696" cy="129.803" r="5.67885" fill="black"/>
<path d="M198.358 158.198C215.545 163.98 228.966 166.934 242.237 167.029C255.901 167.127 269.405 164.194 286.696 158.198" stroke="black" stroke-width="5" stroke-linecap="round"/>
<path d="M231.801 138.006L232.178 137.445C237.137 130.078 248.076 130.378 252.623 138.006V138.006" stroke="black" stroke-width="5" stroke-linecap="round"/>
</svg>
