<svg width="322" height="200" viewBox="0 0 322 200" fill="none" xmlns="http://www.w3.org/2000/svg">
<path d="M294.79 12.9454L289.551 16.7128C287.12 18.4607 274.717 -0.154886 274.069 0.311225C273.574 0.667199 248.053 4.10695 236.019 5.71263C232.579 6.17171 230.136 9.27227 230.478 12.7263C230.638 14.3493 231.409 15.8507 232.635 16.9268L234.076 18.1924C234.511 18.5744 234.975 18.9224 235.463 19.2333L241.983 23.3837L245.81 26.0885C246.572 26.6271 247.14 27.3964 247.432 28.2829L247.663 28.9851C248.01 30.0422 248.9 30.8303 249.991 31.0475C251.327 31.3133 252.331 32.4309 252.461 33.7867C252.629 35.5435 251.303 37.098 249.541 37.1968L242.075 37.6152C236.194 37.9448 231.278 43.2826 233.129 48.8743C233.492 49.9707 233.887 50.594 234.296 50.3C235.034 49.7695 237.267 48.9793 239.48 48.2758C242.953 47.1722 246.6 46.7612 250.243 46.8485C253.405 46.9244 256.545 47.4003 259.588 48.2649L269.221 51.0021C273.887 52.328 278.805 52.5043 283.555 51.5158C287.67 50.6593 291.56 48.9486 294.973 46.4944L297.932 44.3667C302.939 40.7661 307.192 36.2194 310.451 30.9835L310.874 30.3039C312.469 27.7411 314.273 25.31 316.369 23.1382C318.215 21.2265 320.365 19.1267 321.252 18.7468C322.423 18.2451 316.832 17.1867 313.28 16.5828C311.519 16.2835 309.936 15.3183 308.894 13.8681C307.782 12.322 306.06 11.3279 304.165 11.1386L302.245 10.9469C299.599 10.6826 296.949 11.3931 294.79 12.9454Z" fill="#72C9D3"/>
<path d="M299.474 21.6235C300.246 22.6974 301.743 22.942 302.817 22.1697C303.891 21.3974 304.135 19.9008 303.363 18.8268C302.591 17.7528 301.094 17.5083 300.02 18.2805C298.946 19.0528 298.702 20.5495 299.474 21.6235Z" fill="black"/>
<path d="M273.979 25.2099C273.84 23.8474 272.624 22.8554 271.261 22.9941L249.413 25.2183C248.051 25.357 247.059 26.5739 247.197 27.9364C247.336 29.2988 248.553 30.2909 249.915 30.1522L271.763 27.928C273.126 27.7893 274.118 26.5724 273.979 25.2099Z" fill="black"/>
<path d="M264.111 15.5889C263.972 14.2264 262.755 13.2344 261.393 13.3731L239.545 15.5973C238.182 15.736 237.19 16.9529 237.329 18.3154C237.468 19.6778 238.684 20.6699 240.047 20.5312L261.895 18.307C263.257 18.1683 264.249 16.9514 264.111 15.5889Z" fill="black"/>
<path d="M285.541 199.671C284.201 199.87 57.8219 199.389 9.73718 199.285C4.71795 199.274 0.803516 195.216 0.776752 190.197C0.76955 188.847 1.03927 187.559 1.61265 186.336C7.60549 173.556 43.5756 97.2666 50.425 92.7249C56.9983 88.3663 72.6769 144.772 76.372 158.476C76.8446 160.228 78.4313 161.43 80.2463 161.421C81.9827 161.411 83.5119 160.275 84.0223 158.616L108.441 79.1979C111.941 67.8145 116.563 56.4184 125.254 48.2762C127.384 46.2809 129.53 44.6633 131.42 43.9664C135.517 42.4556 144.295 52.5108 150.943 61.2185C156.783 68.8676 160.076 78.0773 161.286 87.6242L163.268 103.266C163.549 105.479 164.484 107.559 165.953 109.237C167.164 110.621 168.016 112.28 168.434 114.07L171.843 128.67C172.071 129.649 172.32 130.623 172.599 131.588C174.462 138.048 182.174 163.897 186.302 164.063C191.02 164.251 214.617 86.5035 222.962 83.4653C229.436 81.1084 232.713 84.1735 233.857 85.6665C234.214 86.132 234.48 86.667 234.75 87.1877C253.973 124.282 262.997 146.208 276.203 183.882C276.925 185.942 278.413 187.653 280.358 188.646C282.149 189.56 283.567 191.076 284.26 192.963C285.28 195.741 286.488 199.531 285.541 199.671Z" fill="#27AB63"/>
</svg>
