<svg width="109" height="131" viewBox="0 0 109 131" fill="none" xmlns="http://www.w3.org/2000/svg">
<path d="M35.62 93.1917C37.5038 92.5943 43.4119 88.1564 44.2681 87.6444C44.8998 87.2666 54.0617 90.048 58.8223 91.5324C60.7039 92.1191 62.4831 92.9743 64.1263 94.0602L66.1038 95.367C68.3365 96.8426 70.956 97.6295 73.6349 97.6295H76.8007C78.4462 97.6295 80.0223 96.968 81.1721 95.7946C82.322 94.6213 83.9234 93.9597 85.5689 93.9597C87.478 93.9597 89.3119 93.0889 90.4957 91.5961L92.0727 89.6072C92.5615 88.9908 92.8913 88.2644 93.0335 87.4916L93.2403 86.3673C93.5407 84.7341 94.9688 83.5479 96.6347 83.5479C97.5862 83.5479 98.4955 83.1564 99.1476 82.4657L101.286 80.2013C102.795 78.6028 103.772 76.5779 104.081 74.4045L104.728 69.8561C105.063 67.5039 105.742 65.2134 106.743 63.0576L107.932 60.4998C108.636 58.9856 109 57.3368 109 55.668V53.3537C109 52.346 108.669 51.3659 108.058 50.563C107.447 49.7601 107.116 48.7801 107.116 47.7723V45.5735C107.116 43.9414 106.757 42.3292 106.064 40.8507L105.032 38.6518C103.976 36.3979 103.329 33.9746 103.124 31.4951C102.877 28.5102 101.992 25.6126 100.527 22.9973L97.4625 17.5246C95.5521 14.1129 92.6497 11.358 89.1375 9.62269L87.8937 9.00811C85.6774 7.91307 83.2124 7.41466 80.7433 7.56232C77.6338 7.74828 74.5777 6.85988 71.9015 5.2709C68.1178 3.02439 64.855 1.63934 60.7382 0.630245C57.1826 -0.241315 53.4724 -0.125361 49.8599 0.470754L46.8764 0.963088C43.9135 1.45202 41.0835 2.54422 38.5628 4.17156C36.1121 5.75374 33.3682 6.83053 30.493 7.33837L27.8476 7.80564C23.5585 8.56323 19.5131 10.3312 16.0483 12.9624C13.5875 14.8312 11.4627 17.1027 9.76444 19.6801L8.80279 21.1396C6.16083 25.1494 4.39643 29.6691 3.62461 34.4041L0.415833 54.0898C0.0259596 56.4816 -0.0902916 58.9098 0.0693107 61.3278L0.246482 64.012C0.533091 68.3541 2.05957 72.524 4.64587 76.0298L6.3464 78.3349C6.84949 79.0168 7.22528 79.7835 7.45582 80.5981C7.8423 81.9639 8.63319 83.1817 9.72509 84.0923L17.9386 90.9423C19.6512 92.3705 21.9028 92.985 24.1065 92.6256C24.9268 92.4918 25.7602 92.4922 26.5826 92.6126C28.9886 92.9647 34.1871 93.6461 35.62 93.1917Z" fill="#27AB63"/>
<path d="M45.5489 122.984C44.4264 126.19 43.3145 129.548 43.5831 129.548C44.0968 129.548 61.8211 130.828 62.3348 130.998C62.6159 131.092 61.3336 126.97 60.1145 123.218C58.8317 119.27 58.2209 115.133 58.3804 110.985L58.6234 104.664C58.8666 98.3354 60.934 92.2376 64.2992 86.8658C65.6294 84.7425 66.618 83.0359 66.3591 83.0359C63.5354 83.0359 61.1588 84.9495 59.453 87.1924C59.1619 87.5751 58.973 87.7602 58.9955 87.559C59.0672 86.9157 59.0187 70.1647 59.0011 64.7422C58.9975 63.6265 59.1677 62.5242 59.5061 61.4607L61.9602 53.7462C62.1751 53.0705 61.8588 52.3401 61.218 52.0326C60.5441 51.7092 59.7341 51.9576 59.3561 52.6008C57.882 55.1091 54.4501 60.8581 54.1149 60.5908C53.7913 60.3327 50.6303 56.4178 49.1062 54.5216C48.6508 53.955 47.8287 53.849 47.2429 54.2805C46.7118 54.6718 46.5414 55.388 46.8398 55.9753L48.9488 60.1269C49.4731 61.159 49.7277 62.2961 49.6797 63.452C49.4635 68.6636 48.7404 83.6711 47.6074 83.0359C46.2374 82.2678 40.1581 71.1732 39.045 71.0879C38.9338 71.0794 38.8447 71.1382 38.7746 71.251C36.517 74.8831 40.1755 79.541 42.3778 83.2067L42.7421 83.8132C45.9259 89.1126 47.6074 95.1738 47.6074 101.351V111.176C47.6074 115.199 46.8791 119.185 45.5489 122.984Z" fill="#FEBE02"/>
</svg>
