<svg width="109" height="193" viewBox="0 0 109 193" fill="none" xmlns="http://www.w3.org/2000/svg">
<path d="M12.1154 75.102H38.6538V190H12.1154V75.102Z" fill="#F9F9F9"/>
<path d="M18.1154 43.005H31.5V75.102H18.1154V43.005Z" fill="#F9F9F9"/>
<path d="M69.3179 75.102H96.4462V190H69.3179V75.102Z" fill="#F9F9F9"/>
<path d="M75.4513 43.005H89.1333V75.102H75.4513V43.005Z" fill="#F9F9F9"/>
<path d="M12.1154 75.102V72.602H9.61539V75.102H12.1154ZM38.6538 75.102H41.1538V72.602H38.6538V75.102ZM38.6538 190V192.5H41.1538V190H38.6538ZM12.1154 190H9.61539V192.5H12.1154V190ZM18.1154 43.005V40.505H15.6154V43.005H18.1154ZM31.5 43.005H34V40.505H31.5V43.005ZM31.5 75.102V77.602H34V75.102H31.5ZM18.1154 75.102H15.6154V77.602H18.1154V75.102ZM12.9231 40.505C11.5424 40.505 10.4231 41.6243 10.4231 43.005C10.4231 44.3857 11.5424 45.505 12.9231 45.505V40.505ZM37.1538 45.505C38.5346 45.505 39.6538 44.3857 39.6538 43.005C39.6538 41.6243 38.5346 40.505 37.1538 40.505V45.505ZM3 72.602C1.61929 72.602 0.5 73.7213 0.5 75.102C0.5 76.4827 1.61929 77.602 3 77.602V72.602ZM48 77.602C49.3807 77.602 50.5 76.4827 50.5 75.102C50.5 73.7213 49.3807 72.602 48 72.602V77.602ZM27.3077 3C27.3077 1.61929 26.1884 0.5 24.8077 0.5C23.427 0.5 22.3077 1.61929 22.3077 3H27.3077ZM17.1923 23.875C15.8116 23.875 14.6923 24.9943 14.6923 26.375C14.6923 27.7557 15.8116 28.875 17.1923 28.875V23.875ZM33.1154 28.875C34.4961 28.875 35.6154 27.7557 35.6154 26.375C35.6154 24.9943 34.4961 23.875 33.1154 23.875V28.875ZM69.3179 75.102V72.602H66.8179V75.102H69.3179ZM96.4462 75.102H98.9462V72.602H96.4462V75.102ZM96.4462 190V192.5H98.9462V190H96.4462ZM69.3179 190H66.8179V192.5H69.3179V190ZM75.4513 43.005V40.505H72.9513V43.005H75.4513ZM89.1333 43.005H91.6333V40.505H89.1333V43.005ZM89.1333 75.102V77.602H91.6333V75.102H89.1333ZM75.4513 75.102H72.9513V77.602H75.4513V75.102ZM69.9077 40.505C68.527 40.505 67.4077 41.6243 67.4077 43.005C67.4077 44.3857 68.527 45.505 69.9077 45.505V40.505ZM94.6769 45.505C96.0576 45.505 97.1769 44.3857 97.1769 43.005C97.1769 41.6243 96.0576 40.505 94.6769 40.505V45.505ZM60 72.602C58.6193 72.602 57.5 73.7213 57.5 75.102C57.5 76.4827 58.6193 77.602 60 77.602V72.602ZM106 77.602C107.381 77.602 108.5 76.4827 108.5 75.102C108.5 73.7213 107.381 72.602 106 72.602V77.602ZM84.7923 3C84.7923 1.61929 83.673 0.5 82.2923 0.5C80.9116 0.5 79.7923 1.61929 79.7923 3H84.7923ZM74.5077 23.875C73.127 23.875 72.0077 24.9943 72.0077 26.375C72.0077 27.7557 73.127 28.875 74.5077 28.875V23.875ZM90.7846 28.875C92.1653 28.875 93.2846 27.7557 93.2846 26.375C93.2846 24.9943 92.1653 23.875 90.7846 23.875V28.875ZM5 105.5C3.61929 105.5 2.5 106.619 2.5 108C2.5 109.381 3.61929 110.5 5 110.5V105.5ZM102 110.5C103.381 110.5 104.5 109.381 104.5 108C104.5 106.619 103.381 105.5 102 105.5V110.5ZM5 128.5C3.61929 128.5 2.5 129.619 2.5 131C2.5 132.381 3.61929 133.5 5 133.5V128.5ZM44 133.5C45.3807 133.5 46.5 132.381 46.5 131C46.5 129.619 45.3807 128.5 44 128.5V133.5ZM64 128.5C62.6193 128.5 61.5 129.619 61.5 131C61.5 132.381 62.6193 133.5 64 133.5V128.5ZM102 133.5C103.381 133.5 104.5 132.381 104.5 131C104.5 129.619 103.381 128.5 102 128.5V133.5ZM41.6842 130.086C41.1139 131.343 41.6708 132.825 42.9282 133.395C44.1856 133.966 45.6673 133.409 46.2377 132.152L41.6842 130.086ZM56.4779 109.576C57.0482 108.319 56.4913 106.837 55.2339 106.267C53.9765 105.697 52.4948 106.254 51.9244 107.511L56.4779 109.576ZM61.2335 132.152C61.8039 133.409 63.2856 133.966 64.543 133.395C65.8004 132.825 66.3573 131.343 65.787 130.086L61.2335 132.152ZM55.5468 107.511C54.9764 106.254 53.4947 105.697 52.2373 106.267C50.9799 106.837 50.423 108.319 50.9933 109.576L55.5468 107.511ZM12.1154 77.602H38.6538V72.602H12.1154V77.602ZM36.1538 75.102V190H41.1538V75.102H36.1538ZM38.6538 187.5H12.1154V192.5H38.6538V187.5ZM14.6154 190V75.102H9.61539V190H14.6154ZM18.1154 45.505H31.5V40.505H18.1154V45.505ZM29 43.005V75.102H34V43.005H29ZM31.5 72.602H18.1154V77.602H31.5V72.602ZM20.6154 75.102V43.005H15.6154V75.102H20.6154ZM12.9231 45.505H37.1538V40.505H12.9231V45.505ZM3 77.602H48V72.602H3V77.602ZM22.3077 3V43.005H27.3077V3H22.3077ZM17.1923 28.875H33.1154V23.875H17.1923V28.875ZM69.3179 77.602H96.4462V72.602H69.3179V77.602ZM93.9462 75.102V190H98.9462V75.102H93.9462ZM96.4462 187.5H69.3179V192.5H96.4462V187.5ZM71.8179 190V75.102H66.8179V190H71.8179ZM75.4513 45.505H89.1333V40.505H75.4513V45.505ZM86.6333 43.005V75.102H91.6333V43.005H86.6333ZM89.1333 72.602H75.4513V77.602H89.1333V72.602ZM77.9513 75.102V43.005H72.9513V75.102H77.9513ZM69.9077 45.505H94.6769V40.505H69.9077V45.505ZM60 77.602H106V72.602H60V77.602ZM79.7923 3V43.005H84.7923V3H79.7923ZM74.5077 28.875H90.7846V23.875H74.5077V28.875ZM5 110.5H102V105.5H5V110.5ZM5 133.5H44V128.5H5V133.5ZM64 133.5H102V128.5H64V133.5ZM46.2377 132.152L56.4779 109.576L51.9244 107.511L41.6842 130.086L46.2377 132.152ZM65.787 130.086L55.5468 107.511L50.9933 109.576L61.2335 132.152L65.787 130.086Z" fill="#211C1C"/>
</svg>
